<svg id="Capa_1" enable-background="new 0 0 511.73 511.73" height="512" viewBox="0 0 511.73 511.73" width="512" xmlns="http://www.w3.org/2000/svg"><g><path d="m446.568 159.068-287.486 287.485c-18.936 18.935-49.636 18.935-68.571 0l-40.649-40.649c-18.935-18.935-18.935-49.636 0-68.571l287.486-287.485c18.935-18.935 49.636-18.935 68.571 0l40.649 40.649c18.935 18.935 18.935 49.636 0 68.571z" fill="#e9c278"/><path d="m491.555 100.975-390.567 390.565c-21.536 21.536-56.452 21.536-77.987 0l-2.835-2.835c-21.536-21.536-21.535-56.452 0-77.987l390.566-390.566c21.536-21.535 56.452-21.535 77.987 0l2.835 2.835c21.537 21.536 21.537 56.452.001 77.988z" fill="#eaa895"/><path d="m435.253 60.615c-13.283 13.283-29.331 10.388-39.95 8.473-9.391-1.694-11.831-1.646-13.743.266-1.913 1.912-1.96 4.353-.266 13.743 1.915 10.62 4.81 26.668-8.473 39.951s-29.332 10.389-39.951 8.474c-9.391-1.694-11.831-1.646-13.744.267-1.914 1.913-1.961 4.354-.268 13.745 1.915 10.619 4.809 26.668-8.474 39.951s-29.331 10.389-39.951 8.474c-9.391-1.694-11.831-1.646-13.744.267s-1.961 4.354-.268 13.745c1.915 10.62 4.809 26.668-8.474 39.951s-29.331 10.389-39.951 8.473c-9.391-1.694-11.831-1.646-13.744.266-1.913 1.913-1.961 4.353-.267 13.744 1.915 10.62 4.809 26.668-8.474 39.951s-29.332 10.389-39.951 8.474c-9.391-1.693-11.832-1.646-13.745.268-1.913 1.913-1.961 4.354-.267 13.745 1.915 10.619 4.809 26.668-8.474 39.951-13.284 13.283-29.332 10.39-39.952 8.476-9.392-1.693-11.833-1.646-13.748.269-1.914 1.914-1.962 4.355-.269 13.748 1.914 10.62 4.807 26.668-8.476 39.952-5.785 5.785-15.164 5.785-20.949 0s-5.785-15.164 0-20.949c1.915-1.915 1.962-4.355.269-13.748-1.914-10.62-4.807-26.668 8.476-39.952 13.284-13.284 29.332-10.39 39.952-8.476 9.393 1.693 11.834 1.645 13.748-.269 1.913-1.913 1.96-4.354.267-13.745-1.915-10.619-4.809-26.668 8.474-39.951s29.332-10.389 39.951-8.474c9.391 1.693 11.832 1.646 13.745-.268 1.913-1.913 1.961-4.353.267-13.744-1.915-10.62-4.809-26.668 8.474-39.951s29.331-10.389 39.951-8.474c9.391 1.694 11.831 1.646 13.744-.266 1.913-1.913 1.96-4.354.268-13.745-1.915-10.62-4.809-26.668 8.474-39.951s29.331-10.389 39.951-8.474c9.391 1.694 11.831 1.646 13.744-.267s1.961-4.353.267-13.745c-1.915-10.62-4.809-26.668 8.474-39.951s29.331-10.389 39.951-8.474c9.391 1.694 11.831 1.646 13.744-.267 1.913-1.912 1.96-4.353.266-13.743-1.915-10.62-4.81-26.668 8.473-39.951s29.331-10.388 39.951-8.473c9.39 1.694 11.83 1.646 13.743-.266 5.785-5.785 15.164-5.785 20.949 0 5.785 5.786 5.785 15.165 0 20.95z" fill="#f9fbfc"/><path d="m493.503 206.062-287.427 287.427c-18.952 18.952-49.679 18.952-68.63 0l-40.59-40.59c-18.952-18.952-18.952-49.679 0-68.63l287.427-287.427c18.952-18.952 49.679-18.952 68.63 0l40.589 40.59c18.953 18.952 18.953 49.678.001 68.63z" fill="#e9c278"/><g fill="#f9fbfc"><path d="m506.473 160.855c-.396-1.729-.878-3.442-1.466-5.128-.529.557-.859 1.305-.859 2.134.001 1.444.991 2.647 2.325 2.994z"/><path d="m507.254 174.774c-1.715 0-3.105 1.39-3.105 3.105 0 1.573 1.174 2.86 2.692 3.064.389-2.029.638-4.077.768-6.133-.118-.014-.234-.036-.355-.036z"/><path d="m487.236 134.739c-1.715 0-3.105 1.39-3.105 3.105s1.39 3.105 3.105 3.105 3.105-1.39 3.105-3.105c0-1.714-1.39-3.105-3.105-3.105z"/><path d="m497.622 144.371c-1.715 0-3.105 1.39-3.105 3.105s1.39 3.105 3.105 3.105 3.105-1.39 3.105-3.105c0-.443-.096-.862-.263-1.243-.144-.232-.286-.465-.435-.695-.569-.706-1.43-1.167-2.407-1.167z"/><path d="m487.236 160.966c1.715 0 3.105-1.39 3.105-3.105s-1.39-3.105-3.105-3.105-3.105 1.39-3.105 3.105 1.391 3.105 3.105 3.105z"/><path d="m497.622 164.388c-1.715 0-3.105 1.39-3.105 3.105s1.39 3.105 3.105 3.105 3.105-1.39 3.105-3.105-1.39-3.105-3.105-3.105z"/><path d="m487.236 180.984c1.715 0 3.105-1.39 3.105-3.105s-1.39-3.105-3.105-3.105-3.105 1.39-3.105 3.105 1.391 3.105 3.105 3.105z"/><path d="m497.622 190.616c1.715 0 3.105-1.39 3.105-3.105s-1.39-3.105-3.105-3.105-3.105 1.39-3.105 3.105c0 1.714 1.39 3.105 3.105 3.105z"/><path d="m487.236 201.001c1.715 0 3.105-1.39 3.105-3.105s-1.39-3.105-3.105-3.105-3.105 1.39-3.105 3.105 1.391 3.105 3.105 3.105z"/><path d="m477.605 130.564c1.715 0 3.105-1.39 3.105-3.105s-1.39-3.105-3.105-3.105-3.105 1.39-3.105 3.105 1.39 3.105 3.105 3.105z"/><path d="m477.605 150.581c1.715 0 3.105-1.39 3.105-3.105s-1.39-3.105-3.105-3.105-3.105 1.39-3.105 3.105 1.39 3.105 3.105 3.105z"/><path d="m467.188 140.866c1.715 0 3.105-1.39 3.105-3.105s-1.39-3.105-3.105-3.105-3.105 1.39-3.105 3.105c0 1.714 1.39 3.105 3.105 3.105z"/><path d="m467.188 120.934c1.715 0 3.105-1.39 3.105-3.105s-1.39-3.105-3.105-3.105-3.105 1.39-3.105 3.105 1.39 3.105 3.105 3.105z"/><path d="m467.219 154.757c-1.715 0-3.105 1.39-3.105 3.105s1.39 3.105 3.105 3.105 3.105-1.39 3.105-3.105-1.39-3.105-3.105-3.105z"/><path d="m477.605 170.598c1.715 0 3.105-1.39 3.105-3.105s-1.39-3.105-3.105-3.105-3.105 1.39-3.105 3.105 1.39 3.105 3.105 3.105z"/><path d="m467.219 174.774c-1.715 0-3.105 1.39-3.105 3.105s1.39 3.105 3.105 3.105 3.105-1.39 3.105-3.105-1.39-3.105-3.105-3.105z"/><path d="m477.605 190.616c1.715 0 3.105-1.39 3.105-3.105s-1.39-3.105-3.105-3.105-3.105 1.39-3.105 3.105c0 1.714 1.39 3.105 3.105 3.105z"/><path d="m467.219 194.791c-1.715 0-3.105 1.39-3.105 3.105s1.39 3.105 3.105 3.105 3.105-1.39 3.105-3.105-1.39-3.105-3.105-3.105z"/><path d="m477.605 210.633c1.715 0 3.105-1.39 3.105-3.105s-1.39-3.105-3.105-3.105-3.105 1.39-3.105 3.105 1.39 3.105 3.105 3.105z"/><path d="m467.219 214.808c-1.715 0-3.105 1.39-3.105 3.105s1.39 3.105 3.105 3.105 3.105-1.39 3.105-3.105-1.39-3.105-3.105-3.105z"/><path d="m459.433 104.957c.42.655.824 1.317 1.21 1.987-.133-.813-.577-1.515-1.21-1.987z"/><path d="m457.587 164.388c-1.715 0-3.105 1.39-3.105 3.105s1.39 3.105 3.105 3.105 3.105-1.39 3.105-3.105-1.39-3.105-3.105-3.105z"/><path d="m447.202 174.774c-1.715 0-3.105 1.39-3.105 3.105s1.39 3.105 3.105 3.105 3.105-1.39 3.105-3.105-1.39-3.105-3.105-3.105z"/><path d="m457.587 184.406c-1.715 0-3.105 1.39-3.105 3.105s1.39 3.105 3.105 3.105 3.105-1.39 3.105-3.105-1.39-3.105-3.105-3.105z"/><path d="m447.202 194.791c-1.715 0-3.105 1.39-3.105 3.105s1.39 3.105 3.105 3.105 3.105-1.39 3.105-3.105-1.39-3.105-3.105-3.105z"/><path d="m457.587 204.423c-1.715 0-3.105 1.39-3.105 3.105s1.39 3.105 3.105 3.105 3.105-1.39 3.105-3.105-1.39-3.105-3.105-3.105z"/><path d="m447.202 214.808c-1.715 0-3.105 1.39-3.105 3.105s1.39 3.105 3.105 3.105 3.105-1.39 3.105-3.105-1.39-3.105-3.105-3.105z"/><path d="m457.587 230.65c1.715 0 3.105-1.39 3.105-3.105s-1.39-3.105-3.105-3.105-3.105 1.39-3.105 3.105 1.391 3.105 3.105 3.105z"/><path d="m447.202 234.826c-1.715 0-3.105 1.39-3.105 3.105s1.39 3.105 3.105 3.105 3.105-1.39 3.105-3.105-1.39-3.105-3.105-3.105z"/><path d="m437.57 184.406c-1.715 0-3.105 1.39-3.105 3.105s1.39 3.105 3.105 3.105 3.105-1.39 3.105-3.105-1.39-3.105-3.105-3.105z"/><path d="m427.185 194.791c-1.715 0-3.105 1.39-3.105 3.105s1.39 3.105 3.105 3.105 3.105-1.39 3.105-3.105-1.391-3.105-3.105-3.105z"/><path d="m437.57 204.423c-1.715 0-3.105 1.39-3.105 3.105s1.39 3.105 3.105 3.105 3.105-1.39 3.105-3.105-1.39-3.105-3.105-3.105z"/><path d="m427.185 214.808c-1.715 0-3.105 1.39-3.105 3.105s1.39 3.105 3.105 3.105 3.105-1.39 3.105-3.105-1.391-3.105-3.105-3.105z"/><path d="m437.57 224.44c-1.715 0-3.105 1.39-3.105 3.105s1.39 3.105 3.105 3.105 3.105-1.39 3.105-3.105-1.39-3.105-3.105-3.105z"/><path d="m427.185 234.826c-1.715 0-3.105 1.39-3.105 3.105s1.39 3.105 3.105 3.105 3.105-1.39 3.105-3.105-1.391-3.105-3.105-3.105z"/><path d="m437.57 244.457c-1.715 0-3.105 1.39-3.105 3.105s1.39 3.105 3.105 3.105 3.105-1.39 3.105-3.105-1.39-3.105-3.105-3.105z"/><path d="m427.185 254.843c-1.715 0-3.105 1.39-3.105 3.105s1.39 3.105 3.105 3.105 3.105-1.39 3.105-3.105-1.391-3.105-3.105-3.105z"/><path d="m417.553 204.423c-1.715 0-3.105 1.39-3.105 3.105s1.39 3.105 3.105 3.105 3.105-1.39 3.105-3.105-1.39-3.105-3.105-3.105z"/><path d="m407.167 214.808c-1.715 0-3.105 1.39-3.105 3.105s1.39 3.105 3.105 3.105 3.105-1.39 3.105-3.105-1.39-3.105-3.105-3.105z"/><path d="m417.553 224.44c-1.715 0-3.105 1.39-3.105 3.105s1.39 3.105 3.105 3.105 3.105-1.39 3.105-3.105-1.39-3.105-3.105-3.105z"/><path d="m407.167 234.826c-1.715 0-3.105 1.39-3.105 3.105s1.39 3.105 3.105 3.105 3.105-1.39 3.105-3.105-1.39-3.105-3.105-3.105z"/><path d="m417.553 244.457c-1.715 0-3.105 1.39-3.105 3.105s1.39 3.105 3.105 3.105 3.105-1.39 3.105-3.105-1.39-3.105-3.105-3.105z"/><path d="m407.167 254.843c-1.715 0-3.105 1.39-3.105 3.105s1.39 3.105 3.105 3.105 3.105-1.39 3.105-3.105-1.39-3.105-3.105-3.105z"/><path d="m417.553 264.475c-1.715 0-3.105 1.39-3.105 3.105s1.39 3.105 3.105 3.105 3.105-1.39 3.105-3.105-1.39-3.105-3.105-3.105z"/><path d="m407.167 274.86c-1.715 0-3.105 1.39-3.105 3.105s1.39 3.105 3.105 3.105 3.105-1.39 3.105-3.105-1.39-3.105-3.105-3.105z"/><path d="m397.536 224.44c-1.715 0-3.105 1.39-3.105 3.105s1.39 3.105 3.105 3.105 3.105-1.39 3.105-3.105-1.391-3.105-3.105-3.105z"/><path d="m387.15 234.826c-1.715 0-3.105 1.39-3.105 3.105s1.39 3.105 3.105 3.105 3.105-1.39 3.105-3.105-1.39-3.105-3.105-3.105z"/><path d="m397.536 244.457c-1.715 0-3.105 1.39-3.105 3.105s1.39 3.105 3.105 3.105 3.105-1.39 3.105-3.105-1.391-3.105-3.105-3.105z"/><path d="m387.15 254.843c-1.715 0-3.105 1.39-3.105 3.105s1.39 3.105 3.105 3.105 3.105-1.39 3.105-3.105-1.39-3.105-3.105-3.105z"/><path d="m397.536 264.475c-1.715 0-3.105 1.39-3.105 3.105s1.39 3.105 3.105 3.105 3.105-1.39 3.105-3.105-1.391-3.105-3.105-3.105z"/><path d="m387.15 274.86c-1.715 0-3.105 1.39-3.105 3.105s1.39 3.105 3.105 3.105 3.105-1.39 3.105-3.105-1.39-3.105-3.105-3.105z"/><path d="m397.536 284.492c-1.715 0-3.105 1.39-3.105 3.105s1.39 3.105 3.105 3.105 3.105-1.39 3.105-3.105-1.391-3.105-3.105-3.105z"/><path d="m387.15 294.877c-1.715 0-3.105 1.39-3.105 3.105s1.39 3.105 3.105 3.105 3.105-1.39 3.105-3.105-1.39-3.105-3.105-3.105z"/><path d="m377.518 244.457c-1.715 0-3.105 1.39-3.105 3.105s1.39 3.105 3.105 3.105 3.105-1.39 3.105-3.105-1.39-3.105-3.105-3.105z"/><path d="m367.133 254.843c-1.715 0-3.105 1.39-3.105 3.105s1.39 3.105 3.105 3.105 3.105-1.39 3.105-3.105-1.39-3.105-3.105-3.105z"/><path d="m377.518 264.475c-1.715 0-3.105 1.39-3.105 3.105s1.39 3.105 3.105 3.105 3.105-1.39 3.105-3.105-1.39-3.105-3.105-3.105z"/><path d="m367.133 274.86c-1.715 0-3.105 1.39-3.105 3.105s1.39 3.105 3.105 3.105 3.105-1.39 3.105-3.105-1.39-3.105-3.105-3.105z"/><path d="m377.518 284.492c-1.715 0-3.105 1.39-3.105 3.105s1.39 3.105 3.105 3.105 3.105-1.39 3.105-3.105-1.39-3.105-3.105-3.105z"/><path d="m367.133 294.877c-1.715 0-3.105 1.39-3.105 3.105s1.39 3.105 3.105 3.105 3.105-1.39 3.105-3.105-1.39-3.105-3.105-3.105z"/><path d="m377.518 304.509c-1.715 0-3.105 1.39-3.105 3.105s1.39 3.105 3.105 3.105 3.105-1.39 3.105-3.105-1.39-3.105-3.105-3.105z"/><path d="m367.133 314.895c-1.715 0-3.105 1.39-3.105 3.105s1.39 3.105 3.105 3.105 3.105-1.39 3.105-3.105-1.39-3.105-3.105-3.105z"/><path d="m357.501 264.475c-1.715 0-3.105 1.39-3.105 3.105s1.39 3.105 3.105 3.105 3.105-1.39 3.105-3.105-1.39-3.105-3.105-3.105z"/><path d="m347.116 274.86c-1.715 0-3.105 1.39-3.105 3.105s1.39 3.105 3.105 3.105 3.105-1.39 3.105-3.105-1.391-3.105-3.105-3.105z"/><path d="m357.501 284.492c-1.715 0-3.105 1.39-3.105 3.105s1.39 3.105 3.105 3.105 3.105-1.39 3.105-3.105-1.39-3.105-3.105-3.105z"/><path d="m347.116 294.877c-1.715 0-3.105 1.39-3.105 3.105s1.39 3.105 3.105 3.105 3.105-1.39 3.105-3.105-1.391-3.105-3.105-3.105z"/><path d="m357.501 304.509c-1.715 0-3.105 1.39-3.105 3.105s1.39 3.105 3.105 3.105 3.105-1.39 3.105-3.105-1.39-3.105-3.105-3.105z"/><path d="m347.116 314.895c-1.715 0-3.105 1.39-3.105 3.105s1.39 3.105 3.105 3.105 3.105-1.39 3.105-3.105-1.391-3.105-3.105-3.105z"/><path d="m357.501 324.526c-1.715 0-3.105 1.39-3.105 3.105s1.39 3.105 3.105 3.105 3.105-1.39 3.105-3.105-1.39-3.105-3.105-3.105z"/><path d="m347.116 334.912c-1.715 0-3.105 1.39-3.105 3.105s1.39 3.105 3.105 3.105 3.105-1.39 3.105-3.105-1.391-3.105-3.105-3.105z"/><path d="m337.484 284.492c-1.715 0-3.105 1.39-3.105 3.105s1.39 3.105 3.105 3.105 3.105-1.39 3.105-3.105-1.39-3.105-3.105-3.105z"/><path d="m327.098 294.877c-1.715 0-3.105 1.39-3.105 3.105s1.39 3.105 3.105 3.105 3.105-1.39 3.105-3.105-1.39-3.105-3.105-3.105z"/><path d="m337.484 304.509c-1.715 0-3.105 1.39-3.105 3.105s1.39 3.105 3.105 3.105 3.105-1.39 3.105-3.105-1.39-3.105-3.105-3.105z"/><path d="m327.098 314.895c-1.715 0-3.105 1.39-3.105 3.105s1.39 3.105 3.105 3.105 3.105-1.39 3.105-3.105-1.39-3.105-3.105-3.105z"/><path d="m337.484 324.526c-1.715 0-3.105 1.39-3.105 3.105s1.39 3.105 3.105 3.105 3.105-1.39 3.105-3.105-1.39-3.105-3.105-3.105z"/><path d="m327.098 334.912c-1.715 0-3.105 1.39-3.105 3.105s1.39 3.105 3.105 3.105 3.105-1.39 3.105-3.105-1.39-3.105-3.105-3.105z"/><path d="m337.484 344.544c-1.715 0-3.105 1.39-3.105 3.105s1.39 3.105 3.105 3.105 3.105-1.39 3.105-3.105-1.39-3.105-3.105-3.105z"/><path d="m327.098 354.929c-1.715 0-3.105 1.39-3.105 3.105s1.39 3.105 3.105 3.105 3.105-1.39 3.105-3.105-1.39-3.105-3.105-3.105z"/><path d="m317.467 304.509c-1.715 0-3.105 1.39-3.105 3.105s1.39 3.105 3.105 3.105 3.105-1.39 3.105-3.105-1.391-3.105-3.105-3.105z"/><path d="m307.081 314.895c-1.715 0-3.105 1.39-3.105 3.105s1.39 3.105 3.105 3.105 3.105-1.39 3.105-3.105-1.39-3.105-3.105-3.105z"/><path d="m317.467 324.526c-1.715 0-3.105 1.39-3.105 3.105s1.39 3.105 3.105 3.105 3.105-1.39 3.105-3.105-1.391-3.105-3.105-3.105z"/><path d="m307.081 334.912c-1.715 0-3.105 1.39-3.105 3.105s1.39 3.105 3.105 3.105 3.105-1.39 3.105-3.105-1.39-3.105-3.105-3.105z"/><path d="m317.467 344.544c-1.715 0-3.105 1.39-3.105 3.105s1.39 3.105 3.105 3.105 3.105-1.39 3.105-3.105-1.391-3.105-3.105-3.105z"/><path d="m307.081 354.929c-1.715 0-3.105 1.39-3.105 3.105s1.39 3.105 3.105 3.105 3.105-1.39 3.105-3.105-1.39-3.105-3.105-3.105z"/><path d="m317.467 364.561c-1.715 0-3.105 1.39-3.105 3.105s1.39 3.105 3.105 3.105 3.105-1.39 3.105-3.105-1.391-3.105-3.105-3.105z"/><path d="m307.081 374.946c-1.715 0-3.105 1.39-3.105 3.105s1.39 3.105 3.105 3.105 3.105-1.39 3.105-3.105-1.39-3.105-3.105-3.105z"/><path d="m297.449 324.526c-1.715 0-3.105 1.39-3.105 3.105s1.39 3.105 3.105 3.105 3.105-1.39 3.105-3.105-1.39-3.105-3.105-3.105z"/><path d="m287.064 334.912c-1.715 0-3.105 1.39-3.105 3.105s1.39 3.105 3.105 3.105 3.105-1.39 3.105-3.105-1.39-3.105-3.105-3.105z"/><path d="m297.449 344.544c-1.715 0-3.105 1.39-3.105 3.105s1.39 3.105 3.105 3.105 3.105-1.39 3.105-3.105-1.39-3.105-3.105-3.105z"/><path d="m287.064 354.929c-1.715 0-3.105 1.39-3.105 3.105s1.39 3.105 3.105 3.105 3.105-1.39 3.105-3.105-1.39-3.105-3.105-3.105z"/><path d="m297.449 364.561c-1.715 0-3.105 1.39-3.105 3.105s1.39 3.105 3.105 3.105 3.105-1.39 3.105-3.105-1.39-3.105-3.105-3.105z"/><path d="m287.064 374.946c-1.715 0-3.105 1.39-3.105 3.105s1.39 3.105 3.105 3.105 3.105-1.39 3.105-3.105-1.39-3.105-3.105-3.105z"/><path d="m297.449 384.578c-1.715 0-3.105 1.39-3.105 3.105s1.39 3.105 3.105 3.105 3.105-1.39 3.105-3.105-1.39-3.105-3.105-3.105z"/><path d="m287.064 394.963c-1.715 0-3.105 1.39-3.105 3.105s1.39 3.105 3.105 3.105 3.105-1.39 3.105-3.105c0-1.714-1.39-3.105-3.105-3.105z"/><path d="m277.432 344.544c-1.715 0-3.105 1.39-3.105 3.105s1.39 3.105 3.105 3.105 3.105-1.39 3.105-3.105-1.39-3.105-3.105-3.105z"/><path d="m267.047 354.929c-1.715 0-3.105 1.39-3.105 3.105s1.39 3.105 3.105 3.105 3.105-1.39 3.105-3.105-1.391-3.105-3.105-3.105z"/><path d="m277.432 364.561c-1.715 0-3.105 1.39-3.105 3.105s1.39 3.105 3.105 3.105 3.105-1.39 3.105-3.105-1.39-3.105-3.105-3.105z"/><path d="m267.047 374.946c-1.715 0-3.105 1.39-3.105 3.105s1.39 3.105 3.105 3.105 3.105-1.39 3.105-3.105-1.391-3.105-3.105-3.105z"/><path d="m277.432 384.578c-1.715 0-3.105 1.39-3.105 3.105s1.39 3.105 3.105 3.105 3.105-1.39 3.105-3.105-1.39-3.105-3.105-3.105z"/><path d="m267.047 394.963c-1.715 0-3.105 1.39-3.105 3.105s1.39 3.105 3.105 3.105 3.105-1.39 3.105-3.105c0-1.714-1.391-3.105-3.105-3.105z"/><path d="m277.432 404.595c-1.715 0-3.105 1.39-3.105 3.105s1.39 3.105 3.105 3.105 3.105-1.39 3.105-3.105-1.39-3.105-3.105-3.105z"/><path d="m267.047 414.981c-1.715 0-3.105 1.39-3.105 3.105s1.39 3.105 3.105 3.105 3.105-1.39 3.105-3.105-1.391-3.105-3.105-3.105z"/><circle cx="257.415" cy="367.666" r="3.105"/><path d="m247.029 374.946c-1.715 0-3.105 1.39-3.105 3.105s1.39 3.105 3.105 3.105 3.105-1.39 3.105-3.105-1.39-3.105-3.105-3.105z"/><path d="m257.415 384.578c-1.715 0-3.105 1.39-3.105 3.105s1.39 3.105 3.105 3.105 3.105-1.39 3.105-3.105-1.39-3.105-3.105-3.105z"/><path d="m247.029 394.963c-1.715 0-3.105 1.39-3.105 3.105s1.39 3.105 3.105 3.105 3.105-1.39 3.105-3.105c0-1.714-1.39-3.105-3.105-3.105z"/><path d="m257.415 404.595c-1.715 0-3.105 1.39-3.105 3.105s1.39 3.105 3.105 3.105 3.105-1.39 3.105-3.105-1.39-3.105-3.105-3.105z"/><path d="m247.029 414.981c-1.715 0-3.105 1.39-3.105 3.105s1.39 3.105 3.105 3.105 3.105-1.39 3.105-3.105-1.39-3.105-3.105-3.105z"/><path d="m257.415 424.613c-1.715 0-3.105 1.39-3.105 3.105s1.39 3.105 3.105 3.105 3.105-1.39 3.105-3.105-1.39-3.105-3.105-3.105z"/><path d="m247.029 434.998c-1.715 0-3.105 1.39-3.105 3.105s1.39 3.105 3.105 3.105 3.105-1.39 3.105-3.105-1.39-3.105-3.105-3.105z"/><path d="m237.398 384.578c-1.715 0-3.105 1.39-3.105 3.105s1.39 3.105 3.105 3.105 3.105-1.39 3.105-3.105-1.391-3.105-3.105-3.105z"/><path d="m227.012 394.963c-1.715 0-3.105 1.39-3.105 3.105s1.39 3.105 3.105 3.105 3.105-1.39 3.105-3.105c0-1.714-1.39-3.105-3.105-3.105z"/><path d="m237.398 404.595c-1.715 0-3.105 1.39-3.105 3.105s1.39 3.105 3.105 3.105 3.105-1.39 3.105-3.105-1.391-3.105-3.105-3.105z"/><path d="m227.012 414.981c-1.715 0-3.105 1.39-3.105 3.105s1.39 3.105 3.105 3.105 3.105-1.39 3.105-3.105-1.39-3.105-3.105-3.105z"/><path d="m237.398 424.613c-1.715 0-3.105 1.39-3.105 3.105s1.39 3.105 3.105 3.105 3.105-1.39 3.105-3.105-1.391-3.105-3.105-3.105z"/><path d="m227.012 434.998c-1.715 0-3.105 1.39-3.105 3.105s1.39 3.105 3.105 3.105 3.105-1.39 3.105-3.105-1.39-3.105-3.105-3.105z"/><path d="m237.398 444.63c-1.715 0-3.105 1.39-3.105 3.105s1.39 3.105 3.105 3.105 3.105-1.39 3.105-3.105-1.391-3.105-3.105-3.105z"/><path d="m227.012 455.015c-1.715 0-3.105 1.39-3.105 3.105s1.39 3.105 3.105 3.105 3.105-1.39 3.105-3.105-1.39-3.105-3.105-3.105z"/><path d="m217.38 404.595c-1.715 0-3.105 1.39-3.105 3.105s1.39 3.105 3.105 3.105 3.105-1.39 3.105-3.105-1.39-3.105-3.105-3.105z"/><path d="m206.995 414.981c-1.715 0-3.105 1.39-3.105 3.105s1.39 3.105 3.105 3.105 3.105-1.39 3.105-3.105-1.39-3.105-3.105-3.105z"/><path d="m217.38 424.613c-1.715 0-3.105 1.39-3.105 3.105s1.39 3.105 3.105 3.105 3.105-1.39 3.105-3.105-1.39-3.105-3.105-3.105z"/><path d="m206.995 434.998c-1.715 0-3.105 1.39-3.105 3.105s1.39 3.105 3.105 3.105 3.105-1.39 3.105-3.105-1.39-3.105-3.105-3.105z"/><path d="m217.38 444.63c-1.715 0-3.105 1.39-3.105 3.105s1.39 3.105 3.105 3.105 3.105-1.39 3.105-3.105-1.39-3.105-3.105-3.105z"/><path d="m206.995 455.015c-1.715 0-3.105 1.39-3.105 3.105s1.39 3.105 3.105 3.105 3.105-1.39 3.105-3.105-1.39-3.105-3.105-3.105z"/><path d="m217.38 464.647c-1.715 0-3.105 1.39-3.105 3.105s1.39 3.105 3.105 3.105 3.105-1.39 3.105-3.105-1.39-3.105-3.105-3.105z"/><path d="m206.995 475.033c-1.715 0-3.105 1.39-3.105 3.105s1.39 3.105 3.105 3.105 3.105-1.39 3.105-3.105-1.39-3.105-3.105-3.105z"/><path d="m197.363 424.613c-1.715 0-3.105 1.39-3.105 3.105s1.39 3.105 3.105 3.105 3.105-1.39 3.105-3.105-1.39-3.105-3.105-3.105z"/><path d="m186.978 434.998c-1.715 0-3.105 1.39-3.105 3.105s1.39 3.105 3.105 3.105 3.105-1.39 3.105-3.105-1.391-3.105-3.105-3.105z"/><path d="m197.363 444.63c-1.715 0-3.105 1.39-3.105 3.105s1.39 3.105 3.105 3.105 3.105-1.39 3.105-3.105-1.39-3.105-3.105-3.105z"/><path d="m186.978 455.015c-1.715 0-3.105 1.39-3.105 3.105s1.39 3.105 3.105 3.105 3.105-1.39 3.105-3.105-1.391-3.105-3.105-3.105z"/><path d="m197.363 464.647c-1.715 0-3.105 1.39-3.105 3.105s1.39 3.105 3.105 3.105 3.105-1.39 3.105-3.105-1.39-3.105-3.105-3.105z"/><path d="m186.978 475.033c-1.715 0-3.105 1.39-3.105 3.105s1.39 3.105 3.105 3.105 3.105-1.39 3.105-3.105-1.391-3.105-3.105-3.105z"/><path d="m197.363 484.664c-1.715 0-3.105 1.39-3.105 3.105s1.39 3.105 3.105 3.105 3.105-1.39 3.105-3.105-1.39-3.105-3.105-3.105z"/><path d="m186.978 495.05c-1.715 0-3.105 1.39-3.105 3.105s1.39 3.105 3.105 3.105 3.105-1.39 3.105-3.105-1.391-3.105-3.105-3.105z"/><path d="m177.346 444.63c-1.715 0-3.105 1.39-3.105 3.105s1.39 3.105 3.105 3.105 3.105-1.39 3.105-3.105-1.39-3.105-3.105-3.105z"/><path d="m166.96 455.015c-1.715 0-3.105 1.39-3.105 3.105s1.39 3.105 3.105 3.105 3.105-1.39 3.105-3.105-1.39-3.105-3.105-3.105z"/><path d="m177.346 464.647c-1.715 0-3.105 1.39-3.105 3.105s1.39 3.105 3.105 3.105 3.105-1.39 3.105-3.105-1.39-3.105-3.105-3.105z"/><path d="m166.96 475.033c-1.715 0-3.105 1.39-3.105 3.105s1.39 3.105 3.105 3.105 3.105-1.39 3.105-3.105-1.39-3.105-3.105-3.105z"/><path d="m177.346 490.874c1.715 0 3.105-1.39 3.105-3.105s-1.39-3.105-3.105-3.105-3.105 1.39-3.105 3.105 1.39 3.105 3.105 3.105z"/><path d="m166.96 495.05c-1.715 0-3.105 1.39-3.105 3.105s1.39 3.105 3.105 3.105 3.105-1.39 3.105-3.105-1.39-3.105-3.105-3.105z"/><path d="m177.346 504.681c-1.663 0-3.009 1.311-3.09 2.954 2.031-.104 4.054-.343 6.061-.701-.372-1.297-1.554-2.253-2.971-2.253z"/><path d="m157.329 464.647c-1.715 0-3.105 1.39-3.105 3.105s1.39 3.105 3.105 3.105 3.105-1.39 3.105-3.105-1.391-3.105-3.105-3.105z"/><path d="m143.838 478.137c0 1.715 1.39 3.105 3.105 3.105s3.105-1.39 3.105-3.105-1.39-3.105-3.105-3.105c-1.715.001-3.105 1.391-3.105 3.105z"/><path d="m134.323 467.821c0 1.715 1.39 3.105 3.105 3.105s3.105-1.39 3.105-3.105-1.39-3.105-3.105-3.105-3.105 1.39-3.105 3.105z"/><path d="m114.292 467.621c0 1.715 1.39 3.105 3.105 3.105s3.105-1.39 3.105-3.105-1.39-3.105-3.105-3.105-3.105 1.39-3.105 3.105z"/><path d="m157.329 484.664c-1.715 0-3.105 1.39-3.105 3.105s1.39 3.105 3.105 3.105 3.105-1.39 3.105-3.105-1.391-3.105-3.105-3.105z"/><path d="m150.048 498.155c0-1.715-1.39-3.105-3.105-3.105s-3.105 1.39-3.105 3.105c0 .271.046.529.111.779 1.157.811 2.339 1.571 3.547 2.27 1.45-.262 2.552-1.524 2.552-3.049z"/><path d="m157.329 504.681c-.518 0-.998.139-1.428.363 1.358.469 2.732.875 4.118 1.219-.534-.94-1.532-1.582-2.69-1.582z"/><circle cx="126.926" cy="478.137" r="3.105"/><path d="m137.311 490.874c1.715 0 3.105-1.39 3.105-3.105s-1.39-3.105-3.105-3.105-3.105 1.39-3.105 3.105 1.391 3.105 3.105 3.105z"/><path d="m106.909 461.225c.304 0 .593-.058.871-.139-1.336-.734-2.643-1.534-3.92-2.404.266 1.446 1.527 2.543 3.049 2.543z"/></g><path d="m496.341 134.593-16.364-16.364 14.416-14.416c23.066-23.066 23.066-60.598 0-83.664l-2.836-2.836c-23.067-23.066-60.598-23.065-83.664 0l-17.153 17.155c-.93-.076-1.88-.133-2.846-.167-18.23-5.888-39.053-1.621-53.504 12.829l-287.247 287.245c-14.452 14.453-18.718 35.28-12.825 53.51.034.962.091 1.909.167 2.836l-17.158 17.158c-11.173 11.174-17.327 26.031-17.327 41.833s6.154 30.658 17.327 41.832l2.835 2.835c11.174 11.174 26.03 17.328 41.832 17.328s30.659-6.154 41.832-17.328l14.416-14.416 16.364 16.364c9.924 9.924 23.119 15.389 37.154 15.389 14.034 0 27.229-5.465 37.153-15.389l287.428-287.427c9.924-9.924 15.389-23.119 15.389-37.153 0-14.035-5.465-27.229-15.389-37.154zm-82.77-111.602c9.968-9.968 23.061-14.952 36.155-14.952 10.948 0 21.889 3.498 31.01 10.468l-18.713 3.377c-2.181.394-3.631 2.482-3.237 4.663s2.479 3.636 4.663 3.237l20.552-3.709-4.537 21.154c-.465 2.168.915 4.302 3.083 4.767.284.061.567.09.846.09 1.852 0 3.517-1.289 3.921-3.173l4.277-19.942c16.997 20.067 16.048 50.244-2.874 69.166l-14.417 14.415-18.548-18.549c-9.924-9.924-23.119-15.389-37.154-15.389-11.811 0-23.02 3.884-32.192 11.026-.337-2.651-.774-5.103-1.162-7.256-.876-4.857-1.585-9.453-.845-10.193.738-.739 5.335-.03 10.192.846 10.746 1.938 28.733 5.183 43.501-9.585 3.556-3.556 5.514-8.284 5.514-13.313s-1.958-9.756-5.514-13.313c-3.556-3.556-8.284-5.514-13.312-5.514-5.029 0-9.757 1.958-13.313 5.514-.738.739-5.335.03-10.193-.846-.192-.035-.392-.071-.588-.106zm-89.669 128.555c-.327-2.447-.732-4.716-1.094-6.726-.876-4.857-1.585-9.454-.844-10.194.738-.739 5.336-.031 10.194.845 2.009.362 4.278.767 6.726 1.093zm22.385-22.385c-4.547-.125-8.886-.902-12.706-1.59-8.859-1.598-13.653-2.263-17.295 1.378-3.641 3.642-2.977 8.435-1.379 17.296.689 3.819 1.466 8.159 1.591 12.705l-32.647 32.647c-4.546-.125-8.886-.902-12.706-1.59-8.861-1.598-13.654-2.263-17.295 1.379-3.641 3.641-2.978 8.434-1.38 17.297.689 3.819 1.465 8.158 1.59 12.704l-32.647 32.646c-4.546-.125-8.886-.901-12.706-1.59-8.858-1.597-13.653-2.262-17.295 1.378-3.642 3.642-2.977 8.435-1.378 17.295.689 3.819 1.465 8.159 1.59 12.705l-32.647 32.647c-4.547-.125-8.887-.901-12.706-1.59-8.862-1.598-13.654-2.262-17.296 1.379-3.641 3.642-2.977 8.435-1.379 17.296.689 3.819 1.466 8.158 1.591 12.705l-32.649 32.649c-4.546-.125-8.886-.901-12.706-1.589-8.861-1.597-13.656-2.262-17.298 1.381-3.643 3.642-2.979 8.436-1.381 17.298 1.872 10.383 4.435 24.603-7.364 36.402-4.209 4.211-11.061 4.211-15.272.001-4.21-4.211-4.21-11.062 0-15.272 3.642-3.643 2.978-8.436 1.381-17.298-1.872-10.383-4.435-24.603 7.364-36.402 7.061-7.062 14.99-8.979 22.444-8.979 5 0 9.788.863 13.957 1.614 8.862 1.597 13.656 2.26 17.299-1.381 3.641-3.641 2.977-8.435 1.379-17.296-1.873-10.382-4.437-24.601 7.362-36.4 11.798-11.799 26.017-9.235 36.401-7.363 8.859 1.596 13.654 2.261 17.296-1.379 3.641-3.642 2.977-8.435 1.378-17.298-1.872-10.382-4.435-24.6 7.362-36.397 11.799-11.798 26.018-9.234 36.4-7.362 8.861 1.599 13.654 2.264 17.295-1.378 3.642-3.64 2.977-8.434 1.38-17.296-1.872-10.382-4.436-24.602 7.362-36.4 11.799-11.799 26.018-9.234 36.401-7.362 8.859 1.597 13.653 2.263 17.295-1.378 3.641-3.641 2.977-8.435 1.379-17.296-1.872-10.382-4.436-24.602 7.363-36.4 11.798-11.799 26.018-9.234 36.4-7.362 8.861 1.598 13.655 2.262 17.295-1.379 3.641-3.64 2.977-8.433 1.379-17.294-1.873-10.382-4.437-24.601 7.361-36.4s26.017-9.233 36.4-7.361c8.86 1.598 13.654 2.262 17.294-1.378 4.21-4.21 11.062-4.211 15.272 0 4.211 4.21 4.211 11.061 0 15.271-11.798 11.799-26.016 9.233-36.399 7.361-8.862-1.598-13.655-2.263-17.294 1.378-3.641 3.64-2.977 8.433-1.379 17.294.689 3.819 1.466 8.159 1.591 12.705zm-84.823 84.823c-.327-2.447-.731-4.717-1.094-6.726-.876-4.858-1.584-9.455-.844-10.195.74-.739 5.335-.031 10.195.845 2.009.362 4.278.767 6.725 1.094zm-62.435 62.435c-.327-2.448-.731-4.717-1.094-6.727-.877-4.857-1.585-9.453-.845-10.193.737-.741 5.334-.031 10.194.846 2.009.362 4.278.767 6.725 1.094zm-62.437 62.437c-.327-2.448-.732-4.716-1.094-6.726-.876-4.857-1.585-9.454-.844-10.194.74-.74 5.336-.032 10.195.844 2.009.362 4.278.767 6.726 1.093zm-38.15-.044c.876 4.857 1.585 9.454.845 10.194-.741.742-5.339.033-10.199-.843-.191-.034-.389-.07-.585-.105l9.833-9.833c.035.196.071.396.106.587zm62.437-62.437c.876 4.857 1.585 9.454.845 10.193-.739.739-5.336.031-10.195-.844-.192-.034-.391-.07-.587-.106l9.831-9.831c.036.197.071.397.106.588zm62.436-62.436c.876 4.858 1.584 9.455.844 10.195-.739.74-5.335.031-10.193-.846-.192-.035-.391-.07-.587-.106l9.831-9.831c.034.197.07.396.105.588zm62.437-62.436c.876 4.857 1.585 9.454.845 10.194-.738.739-5.336.031-10.194-.845-.192-.035-.391-.07-.588-.106l9.831-9.831c.035.197.071.396.106.588zm62.436-62.435c.876 4.857 1.585 9.453.845 10.192-.739.74-5.336.031-10.193-.845-.192-.035-.392-.07-.588-.106l9.83-9.83c.035.197.071.396.106.589zm-295.368 250.984 287.246-287.246c6.788-6.787 15.234-10.915 24.045-12.409-2.156 1.411-4.28 3.109-6.339 5.168-10.621 10.621-11.925 22.907-11.099 32.967l-18.369 18.368c-10.06-.826-22.346.479-32.967 11.099-10.621 10.621-11.925 22.907-11.1 32.968l-18.37 18.37c-10.061-.826-22.347.479-32.968 11.099-10.621 10.621-11.925 22.907-11.1 32.968l-18.369 18.369c-10.061-.826-22.347.479-32.967 11.099-10.62 10.621-11.925 22.906-11.099 32.967l-18.37 18.37c-10.061-.826-22.347.478-32.968 11.1-10.622 10.622-11.926 22.908-11.1 32.968l-18.372 18.372c-10.061-.825-22.347.48-32.969 11.101-2.055 2.055-3.75 4.174-5.16 6.326 1.495-8.802 5.614-17.242 12.395-24.024zm45.33 148.65c-9.657 9.658-22.497 14.977-36.155 14.977-11.869 0-23.118-4.021-32.199-11.412l19.192-2.953c2.191-.337 3.694-2.387 3.357-4.578s-2.388-3.693-4.578-3.357l-20.641 3.176 5.085-21.03c.521-2.155-.804-4.324-2.958-4.845-2.153-.518-4.324.803-4.845 2.958l-4.917 20.336c-7.423-9.092-11.462-20.367-11.462-32.263 0-13.658 5.319-26.498 14.977-36.155l12.888-12.889c.035.196.071.395.106.587.876 4.858 1.584 9.456.843 10.197-7.34 7.341-7.34 19.285 0 26.626 3.67 3.67 8.491 5.505 13.312 5.505s9.642-1.835 13.313-5.505c14.768-14.768 11.526-32.756 9.588-43.503-.876-4.859-1.584-9.457-.843-10.197.74-.742 5.339-.033 10.199.843 2.152.388 4.602.824 7.252 1.161-7.147 9.174-11.034 20.387-11.034 32.202 0 14.035 5.465 27.23 15.389 37.154l18.548 18.548zm392.514-285.479-287.427 287.427c-17.356 17.357-45.597 17.356-62.953 0l-40.589-40.589c-8.408-8.408-13.038-19.586-13.038-31.477s4.63-23.069 13.038-31.477l287.426-287.426c8.678-8.678 20.077-13.018 31.476-13.018 11.4 0 22.799 4.339 31.477 13.018l40.589 40.59c8.408 8.407 13.038 19.586 13.038 31.477.001 11.89-4.629 23.068-13.037 31.475z" fill="#31373d"/></g></svg>